<svg width="232" height="258" viewBox="0 0 232 258" fill="none" xmlns="http://www.w3.org/2000/svg">
<circle r="70" transform="matrix(-0.886526 0.462679 0.462679 0.886526 95.5818 94.7007)" fill="#B10BFF"/>
<path d="M39.0576 136.609C18.5315 108.518 24.6725 80.9484 33.9599 62.0012C49.9419 29.3965 112.723 0.0267171 148.694 49.4974C177.471 89.074 163.017 123.05 152.193 135.091C123.034 147.301 59.5837 164.699 39.0576 136.609Z" fill="white" fill-opacity="0.2"/>
<path d="M40.6494 73.7379C39.1643 65.489 38.2955 54.0985 48.1815 43.8629C68.6859 22.6335 107.444 18.0094 136.415 37.8575C165.386 57.7055 168.937 94.7684 163.157 109.629C133.997 121.839 46.814 107.978 40.6494 73.7379Z" fill="white" fill-opacity="0.25"/>
<path d="M33.5943 66.7041C30.6345 71.4072 29.2788 80.0484 28.9709 83.7811C28.669 86.4448 33.3663 92.2031 31.7469 89.1002C30.4514 86.6179 35.1878 68.3164 37.718 59.476C37.5767 59.9257 36.5542 62.0009 33.5943 66.7041Z" fill="white"/>
<path d="M128.147 38.225C134.793 39.7198 146.054 52.0033 150.854 57.9582C144.5 52.7012 128.136 50.4508 120.747 49.9828L128.147 38.225Z" fill="white"/>
<path d="M110.607 32.715C116.343 33.331 123.495 36.5167 126.354 38.0325L123.29 41.8876C119.847 41.0528 112.821 39.1174 112.265 38.0535C111.71 36.9897 110.929 34.0512 110.607 32.715Z" fill="white"/>
<path d="M113.422 40.2699L122.655 43.9114C121.945 44.2815 120.188 47.8307 119.398 49.559C119.026 49.5654 118.01 49.4936 116.931 49.1545C115.852 48.8155 114.142 43.0901 113.422 40.2699Z" fill="white"/>
<path d="M129.801 159.186L125.753 157.914L122.631 158.416L121.379 163.581L129.801 159.186Z" fill="#B10BFF"/>
<path d="M125.753 157.914L122.207 159.765C122.259 162.746 123.395 168.958 127.528 169.96C132.693 171.212 134.505 172.522 133.908 176.782C133.311 181.041 128.128 191.643 135.164 197.559C142.199 203.475 151.97 199.503 156.539 205.015C161.107 210.526 162.534 215.422 162.188 221.242C161.842 227.063 160.224 236.931 161.632 240.709" stroke="#8D8D8D"/>
</svg>
