<svg width="1610" height="399" viewBox="0 0 1610 399" fill="none" xmlns="http://www.w3.org/2000/svg">
<path d="M1608.32 252.152C872.887 -163.335 231.736 12.9292 0 228.928V344.137H1608.32V252.152Z" fill="white" fill-opacity="0.1"/>
<path d="M91.0589 250.171C26.68 237.87 -1.98884 330.398 0.106873 379.338H1610V316.047V250.171C1601.28 222.288 1580.38 238.553 1573.95 250.171C1563.9 202.195 1527.01 208.654 1509.83 217.88C1487.36 88.7132 1409.37 121.688 1373.19 154.322C1353.07 117.417 1324.85 138.945 1313.25 154.322C1285.42 86.6629 1222.02 106.995 1193.8 125.618C1164.63 36.6365 1098.1 59.1553 1068.48 81.5373C976.94 -13.5949 878.332 41.8989 840.47 81.5373C778.774 60.2146 754.129 114.683 749.518 144.583C729.4 110.548 708.723 130.402 700.899 144.583C659.656 47.8105 568.313 71.1151 527.796 94.864C472.471 36.6365 401.078 79.487 372.298 108.191C306.913 48.323 269.61 107.507 259.132 144.583C227.613 149.093 235.66 183.709 243.624 200.452C156.779 140.585 105.729 208.654 91.0589 250.171Z" fill="white" fill-opacity="0.25"/>
<path d="M91.0413 292.795C26.6748 282.738 -1.98845 358.385 0.106853 398.396H1609.69V346.652V292.795C1600.97 269.998 1580.07 283.296 1573.65 292.795C1563.59 253.572 1526.72 258.852 1509.53 266.395C1487.07 160.793 1409.1 187.752 1372.92 214.432C1352.81 184.26 1324.59 201.86 1313 214.432C1285.17 159.117 1221.78 175.739 1193.57 190.965C1164.4 118.218 1097.88 136.628 1068.27 154.927C976.751 77.1504 878.162 122.52 840.307 154.927C778.623 137.494 753.982 182.025 749.373 206.47C729.258 178.645 708.585 194.876 700.763 206.47C659.528 127.353 568.202 146.406 527.694 165.822C472.379 118.218 401.001 153.25 372.226 176.717C306.853 127.772 269.558 176.159 259.081 206.47C227.569 210.158 235.614 238.458 243.576 252.147C156.749 203.201 105.708 258.852 91.0413 292.795Z" fill="white"/>
<path d="M751.78 34.0385C549.965 42.4196 181.306 26.3559 21.6469 0.514343C2.23081 8.75571 -21.7669 26.9985 37.5709 34.0385C111.743 42.8387 67.0484 61.277 197.793 50.8007C328.537 40.3243 408.995 72.1723 532.616 50.8007C656.236 29.429 602.179 81.8105 805 67.5628C967.257 56.1645 1058.39 23.4226 1073.19 0.514343C1051.4 8.19697 953.596 25.6575 751.78 34.0385Z" fill="white" fill-opacity="0.28"/>
</svg>
