<svg width="68" height="1120" viewBox="0 0 68 1120" fill="none" xmlns="http://www.w3.org/2000/svg">
<path d="M18.4462 14.5598L56.2608 29.6199L24.3111 54.8383L18.4462 14.5598Z" fill="#FF05E6"/>
<path d="M19.4462 591.975L57.2608 607.035L25.3111 632.253L19.4462 591.975Z" fill="#FF05E6"/>
<path d="M11.8409 121.908L52.4965 119.94L33.8732 156.133L11.8409 121.908Z" fill="#FFF960"/>
<path d="M12.8409 699.323L53.4965 697.354L34.8732 733.547L12.8409 699.323Z" fill="#FFF960"/>
<path d="M55.5263 221.601L28.5247 252.059L15.6485 213.446L55.5263 221.601Z" fill="#29AEFA"/>
<path d="M56.5263 799.016L29.5247 829.474L16.6485 790.861L56.5263 799.016Z" fill="#29AEFA"/>
<path d="M56.7129 317.242L22.337 339.038L20.6495 298.37L56.7129 317.242Z" fill="#06FF20"/>
<path d="M57.7129 894.657L23.337 916.453L21.6495 875.784L57.7129 894.657Z" fill="#06FF20"/>
<path d="M57.0776 396.788L40.2364 433.844L16.5658 400.731L57.0776 396.788Z" fill="#FF0B0B"/>
<path d="M58.0776 974.203L41.2364 1011.26L17.5658 978.146L58.0776 974.203Z" fill="#FF0B0B"/>
<path d="M58.66 522.045L17.9568 522.108L38.2532 486.827L58.66 522.045Z" fill="#051EFF"/>
<path d="M59.66 1099.46L18.9568 1099.52L39.2532 1064.24L59.66 1099.46Z" fill="#051EFF"/>
</svg>
